/* XPM */
static char *ilcoin__[] = {
/* columns rows colors chars-per-pixel */
"16 16 183 2 ",
"   c black",
".  c #000001",
"X  c #010200",
"o  c #020201",
"O  c #070603",
"+  c #080604",
"@  c #090704",
"#  c #070A04",
"$  c #090903",
"%  c #0B0903",
"&  c #0C0B05",
"*  c #0E0E05",
"=  c #120F05",
"-  c #121106",
";  c #171205",
":  c #141207",
">  c #151307",
",  c #111108",
"<  c #13130D",
"1  c #14140D",
"2  c #1C130B",
"3  c #191708",
"4  c #1B160C",
"5  c #1A1809",
"6  c #1D1909",
"7  c #1F190B",
"8  c #1F1B0A",
"9  c #271B07",
"0  c #221B09",
"q  c #221C08",
"w  c #201F0C",
"e  c #26200E",
"r  c #28220A",
"t  c #2C230C",
"y  c #2C210E",
"u  c #2D260F",
"i  c #292A0F",
"p  c #2F2B0C",
"a  c #2D2812",
"s  c #302711",
"d  c #312716",
"f  c #372910",
"g  c #352F10",
"h  c #332B14",
"j  c #352917",
"k  c #342B17",
"l  c #382A16",
"z  c #3A2F17",
"x  c #3F2F18",
"c  c #313213",
"v  c #353213",
"b  c #373212",
"n  c #323115",
"m  c #393614",
"M  c #3C3615",
"N  c #3D3417",
"B  c #3C3E17",
"V  c #3E301B",
"C  c #432E17",
"Z  c #412F19",
"A  c #433117",
"S  c #433516",
"D  c #413814",
"F  c #4C3B13",
"G  c #4E3917",
"H  c #46361A",
"J  c #40361D",
"K  c #49341D",
"L  c #553A18",
"P  c #533D18",
"I  c #533A1E",
"U  c #493B20",
"Y  c #55460B",
"T  c #4E4012",
"R  c #4D4517",
"E  c #4B4119",
"W  c #4D461A",
"Q  c #48471C",
"!  c #4F4819",
"~  c #504112",
"^  c #574611",
"/  c #5A4617",
"(  c #594813",
")  c #5C4A12",
"_  c #53461E",
"`  c #514E1B",
"'  c #524F1A",
"]  c #554A1D",
"[  c #5E4919",
"{  c #735C0F",
"}  c #604D14",
"|  c #624D18",
" . c #695512",
".. c #6D5713",
"X. c #6E5B16",
"o. c #6D551D",
"O. c #66581E",
"+. c #6C5A19",
"@. c #705A17",
"#. c #745D16",
"$. c #7D5C16",
"%. c #745E19",
"&. c #765F18",
"*. c #735B1E",
"=. c #7C5918",
"-. c #7A5F18",
";. c #79601C",
":. c #5A4320",
">. c #5D4021",
",. c #5F4C25",
"<. c #5D522E",
"1. c #5C5131",
"2. c #6A4B22",
"3. c #675122",
"4. c #6E5225",
"5. c #665D23",
"6. c #6B5B21",
"7. c #695927",
"8. c #705F26",
"9. c #7F5825",
"0. c #785C28",
"q. c #7D5F28",
"w. c #656124",
"e. c #636624",
"r. c #6B6523",
"t. c #6B6128",
"y. c #726222",
"u. c #7C6B21",
"i. c #7F6029",
"p. c #796B2B",
"a. c #7B762A",
"s. c #7D7C31",
"d. c #806A1A",
"f. c #816B1A",
"g. c #826D1B",
"h. c #876621",
"j. c #866025",
"k. c #876F21",
"l. c #936828",
"z. c #897121",
"x. c #877A2A",
"c. c #837F2F",
"v. c #837F31",
"b. c #9B7A30",
"n. c #83802D",
"m. c #958121",
"M. c #958025",
"N. c #9C8322",
"B. c #94812C",
"V. c #94812E",
"C. c #9E852B",
"Z. c #918932",
"A. c #978D33",
"S. c #9D8E32",
"D. c #939034",
"F. c #9A9437",
"G. c #9C9837",
"H. c #A98626",
"J. c #AA982F",
"K. c #A78636",
"L. c #A18B31",
"P. c #A58D32",
"I. c #A1873E",
"U. c #A59939",
"Y. c #B39B38",
"T. c #B5983E",
"R. c #BE9D38",
"E. c #C39D3D",
"W. c #DCC33F",
"Q. c #AC9647",
"!. c #BEAA40",
"~. c #B8B346",
"^. c #BDBC45",
"/. c #C5B542",
"(. c #C8B442",
"). c #C5BA47",
"_. c #DAC84C",
"`. c #DFDB5A",
"'. c #F0C94E",
"]. c #EAE956",
"[. c #E5E258",
"{. c #EEED59",
"}. c None",
/* pixels */
"}.}.}.}.}.}.Q.1.<.I.}.}.}.}.}.}.",
"}.}.}.}.Y.).[.Q n `._.R.}.}.}.}.",
"}.}.}.z.B.!.5.X X ` F.S.C.}.}.}.",
"}.}.@.k.P.] O a h @ M U._.N.}.}.",
"}./ ^ [ 3.T.p.7 2 t.~.n.J.m.{ }.",
"}.~ ( = S '.6.c B ' {.e.; b.f.}.",
"q.Y X.$ ! x.g ^.].e n.w.X u.f.$.",
"7.{ &.* p r.A.D.G.v.s.b > T ..) ",
"y...&.> r 3 a././.Z.i 0 2 } ;.} ",
"h.;.+.: W X X b.L.$ X E : *.H.=.",
"}.F 0 X D N . 5.y.X b W X t ;.}.",
"}.u + 4 % s z K.E._ m # u 0 9 }.",
"}.}.f x U < & :.4.e 1 ,.b.o.}.}.",
"}.}.}.L Z Z V k h d U H G }.}.}.",
"}.}.}.}.j.2.I I K l A P }.}.}.}.",
"}.}.}.}.}.}.l.j.0.j.}.}.}.}.}.}."
};
