/* XPM */
static char *ilcoin__[] = {
/* columns rows colors chars-per-pixel */
"64 64 254 2 ",
"   c #020201",
".  c #090703",
"X  c #0B0A04",
"o  c #0A0C08",
"O  c #110E05",
"+  c #160F08",
"@  c #151206",
"#  c #1A1506",
"$  c #14130A",
"%  c #1A1409",
"&  c #1C190A",
"*  c #1E1906",
"=  c #191B12",
"-  c #0F1106",
";  c #221B05",
":  c #231C0B",
">  c #2A1D0E",
",  c #22150A",
"<  c #291F10",
"1  c #301F11",
"2  c #311D0F",
"3  c #25220C",
"4  c #2B230C",
"5  c #2D290E",
"6  c #2C2203",
"7  c #31260C",
"8  c #332A0C",
"9  c #3A2D0B",
"0  c #352905",
"q  c #3D3205",
"w  c #3C320C",
"e  c #232213",
"r  c #2B2412",
"t  c #2C2A13",
"y  c #292B19",
"u  c #342412",
"i  c #392613",
"p  c #332C12",
"a  c #3C2B15",
"s  c #352E1A",
"d  c #3B3413",
"f  c #3A381A",
"g  c #393521",
"h  c #43360B",
"j  c #4A3C0B",
"k  c #443807",
"l  c #432C16",
"z  c #482E17",
"x  c #443413",
"c  c #423B14",
"v  c #4A3C14",
"b  c #44331A",
"n  c #4A341A",
"m  c #463B1C",
"M  c #533B1D",
"N  c #5B3B1E",
"B  c #513719",
"V  c #503F0A",
"C  c #613C1C",
"Z  c #463D22",
"A  c #4B3C22",
"S  c #543E21",
"D  c #5F3E20",
"F  c #613E20",
"G  c #4E410E",
"H  c #54430C",
"J  c #5B4909",
"K  c #4D4214",
"L  c #45421B",
"P  c #4C431B",
"I  c #494518",
"U  c #534414",
"Y  c #564A15",
"T  c #5B4B13",
"R  c #54441C",
"E  c #544B1B",
"W  c #5C491A",
"Q  c #5D531B",
"!  c #59531B",
"~  c #614D09",
"^  c #68540C",
"/  c #634C18",
"(  c #655315",
")  c #6C5914",
"_  c #6A5A1B",
"`  c #685419",
"'  c #745C1A",
"]  c #755E16",
"[  c #705B0C",
"{  c #7B6415",
"}  c #75621B",
"|  c #7B631C",
" . c #7B6818",
".. c #7B640C",
"X. c #4A4524",
"o. c #544424",
"O. c #534D2A",
"+. c #5A4B26",
"@. c #595427",
"#. c #5B5635",
"$. c #644322",
"%. c #634C24",
"&. c #6A4925",
"*. c #744B25",
"=. c #754924",
"-. c #6B5223",
";. c #6B542C",
":. c #655A26",
">. c #72562A",
",. c #775928",
"<. c #6B5B32",
"1. c #645932",
"2. c #715F36",
"3. c #6B6423",
"4. c #6B662A",
"5. c #736C2B",
"6. c #796626",
"7. c #7D742B",
"8. c #7B7327",
"9. c #6B6634",
"0. c #756637",
"q. c #7A7632",
"w. c #6E6B4D",
"e. c #826A1C",
"r. c #866B19",
"t. c #8C731C",
"y. c #87731A",
"u. c #947B1C",
"i. c #96781A",
"p. c #82680D",
"a. c #845A2A",
"s. c #826924",
"d. c #83642C",
"f. c #8B6A2C",
"g. c #876C28",
"h. c #887628",
"j. c #937B22",
"k. c #9A7B23",
"l. c #97772C",
"z. c #866934",
"x. c #867938",
"c. c #957232",
"v. c #9A7B34",
"b. c #916D2A",
"n. c #A17C29",
"m. c #A17C34",
"M. c #9C811B",
"N. c #A5851D",
"B. c #B2921E",
"V. c #9A8322",
"C. c #978428",
"Z. c #8D8735",
"A. c #988B35",
"S. c #9B9437",
"D. c #928B2D",
"F. c #A48325",
"G. c #AA8B23",
"H. c #A68929",
"J. c #A9942D",
"K. c #B9972A",
"L. c #A98737",
"P. c #B28A36",
"I. c #A79836",
"U. c #B9943B",
"Y. c #B59A33",
"T. c #BDA428",
"R. c #ABA43B",
"E. c #BCA435",
"W. c #B6A63B",
"Q. c #B9B33F",
"!. c #C49B2C",
"~. c #C79D3E",
"^. c #C8A62B",
"/. c #D2AC2B",
"(. c #D7B62D",
"). c #C8A839",
"_. c #D6AB33",
"`. c #D2A63F",
"'. c #CAB439",
"]. c #DBBA33",
"[. c #D4B639",
"{. c #CAB02E",
"}. c #E5B93B",
"|. c #DDC339",
" X c #CFC13F",
".X c #E5CA3F",
"XX c #E5C538",
"oX c #F0D33C",
"OX c #FFE23F",
"+X c #9D8945",
"@X c #918F52",
"#X c #B69B44",
"$X c #AF9743",
"%X c #AAA748",
"&X c #B6A845",
"*X c #BAB545",
"=X c #A7A557",
"-X c #8F8E63",
";X c #A5A267",
":X c #C79D48",
">X c #CAA846",
",X c #D3AB45",
"<X c #C9B845",
"1X c #D7B644",
"2X c #D1B354",
"3X c #E5BA44",
"4X c #F0BF4A",
"5X c #E5BD65",
"6X c #CBC74B",
"7X c #D6C747",
"8X c #D9D54B",
"9X c #D5C952",
"0X c #DEDB56",
"qX c #C0C051",
"wX c #EBCC46",
"eX c #EDC34A",
"rX c #E6CB4B",
"tX c #E8C947",
"yX c #F2CE49",
"uX c #F4CA48",
"iX c #E6D64B",
"pX c #FCD54B",
"aX c #F5DD4D",
"sX c #FDDC4C",
"dX c #F5D746",
"fX c #E7CE52",
"gX c #E6DC53",
"hX c #FEDE51",
"jX c #F9D953",
"kX c #FCCC52",
"lX c #F6E24E",
"zX c #FCE34D",
"xX c #FEE94D",
"cX c #FDE142",
"vX c #EAE555",
"bX c #F4E453",
"nX c #FEE452",
"mX c #FEEB53",
"MX c #FFED5C",
"NX c #F7EA58",
"BX c #FEF354",
"VX c #FFFB55",
"CX c #FEF35B",
"ZX c #FFFD5C",
"AX c #F5F357",
"SX c #E1E04E",
"DX c #FFFE63",
"FX c #FFFE6C",
"GX c #FFF165",
"HX c #FFFE77",
"JX c #F1E868",
"KX c #E0DC62",
"LX c #FFFF89",
"PX c None",
/* pixels */
"PXPXPXPXPXPXPXPXPXPXPXPXPXPXPXPXPXPXPXPXPXPXPXPXPXPXPXPXPXPX-X;X;X-XPXPXPXPXPXPXPXPXPXPXPXPXPXPXPXPXPXPXPXPXPXPXPXPXPXPXPXPXPXPX",
"PXPXPXPXPXPXPXPXPXPXPXPXPXPXPXPXPXPXPXPXPXPXPXPXLX=Xg y : 3 p t 3 8 t 5 p s #.JXPXPXPXPXPXPXPXPXPXPXPXPXPXPXPXPXPXPXPXPXPXPXPXPX",
"PXPXPXPXPXPXPXPXPXPXPXPXPXPXPXPXPXPXPXPXPXHXGXCXDXR.f 9.=X@.# 3 * : 3 @X@XO.@.KXFXJXGXPXPXPXPXPXPXPXPXPXPXPXPXPXPXPXPXPXPXPXPXPX",
"PXPXPXPXPXPXPXPXPXPXPXPXPXPXPXPXPXPXPXZXSX8XAXZXAXCXDXFXHXq.@ & 4 : 3 KXHXHXFXJXMXMX7XfXjXPXPXPXPXPXPXPXPXPXPXPXPXPXPXPXPXPXPXPX",
"PXPXPXPXPXPXPXPXPXPXPXPXPXPXPXPXPXxXiXR.3.3 4.ZXCXBXBXmXFX5.O 3 3 # 3 9XDXMXGXMXDXqXp '.sX1XrXPXPXPXPXPXPXPXPXPXPXPXPXPXPXPXPXPX",
"PXPXPXPXPXPXPXPXPXPXPXPXPXPXPXdX.XI.3.5.6X%XX *XDXmXZXZXFXq.X # * @ 3 0XFXZXZXBXDXE 4.ZXI.W [.XX>XPXPXPXPXPXPXPXPXPXPXPXPXPXPXPX",
"PXPXPXPXPXPXPXPXPXPXPXPXPXPX{.'.dX: ! DXBXZX4.d AXCXgX6X*Xo.- - @ @ # Z.qX8XAXDXR.E SXvXt S.zXe.H.[.,XPXPXPXPXPXPXPXPXPXPXPXPXPX",
"PXPXPXPXPXPXPXPXPXPXPXPXPX{.(.5 C.W.e '.hXaXfXt S.6Xc #   X @ @ % % # . X 5 7.gXL A.FX:.5.VXI.f E.T V.[.PXPXPXPXPXPXPXPXPXPXPXPX",
"PXPXPXPXPXPXPXPXPXPXPXG.C.G C.h.O 1XZ.: wXyXjX#X2XI.      @ @ X - - @ .     & gXS.5.@.I ZX7Xf  X8.:.! } E.PXPXPXPXPXPXPXPXPXPXPX",
"PXPXPXPXPXPXPXPXPXPXV. .c K % K.h.< tX@.+.hXjXMXfX@.    @ X X X X X X X O . + S.DX0Xq.! Z.L Q.h.& sX'.c ` H.PXPXPXPXPXPXPXPXPXPX",
"PXPXPXPXPXPXPXPXPXy. .c  .K.3.& [.5.c wX<XnXW.Q 4 .   . . . . X X X X @ O X . X I S.NXgX7.S.S.7.A.3..X[.8.M.D.PXPXPXPXPXPXPXPXPX",
"PXPXPXPXPXPXPXPXy.t.@ } ^.K.[.h.8 <XI.yX7XR @       . . . . . . X X . X X X X       p A.rXsX9 Z.BXS.+.XXXXK.N.J.PXPXPXPXPXPXPXPX",
"PXPXPXPXPXPXPXPXe.t.K , j.).].Y.t [.BX<X.     . . . . . .               . X . . .       :.nXiX:.8.sX<X].|.|...[ J.PXPXPXPXPXPXPX",
"PXPXPXPXPXPXPX) q T G._ &  .t.E ).`.E ).x.    . . .         = e y : $         . . X   & 9Xh.h.gXh.W.cXtX|.XXT.q { J.PXPXPXPXPXPX",
"PXPXPXPXPXPXH w h e.e.i.h.p d L.P.).m 5 yXq.        e q.&X2X2X1X2X,X2X>X+XO.X   .   o 9XR.. S.7X|.wXwX|.|.oXC.# 9 y.PXPXPXPXPXPX",
"PXPXPXPXPXh q 0 [ { ' e.e.g.k.P.p v 1Xp d fX:.  X.*XgX&X5.v 4 : , 4 a W v.<X9X+X$   *X*XX S.8X& S.xX.X.X|.Q c T. .^ V.PXPXPXPXPX",
"PXPXPXPXPXh * j  .) | ' a 6.6.,.L.@ _ ,XX.P.fX&X2X7.* .       X . X .     . v W.<X<XmX:.q.SX3 Q 8XC.dX{.G 8.|./.T.M. .C.PXPXPXPX",
"PXPXPXPX@.H 8 @ j ' e.7 / l.:   g.L.X v.kX,X3XhXh..   X X X X O X O X @ - X   t 6XVXaXmXVXI f bX! . D.|.R.XX(.T...* q  .PXPXPXPX",
"PXPXPXw.G H ( Y : 8 8 x k.z     . v.P.L.:X,X1X4XjX+.  . - X @ X @ X X O @ . X %XDXaXlXlXxXR.SX8.    @ '.OX{.D.3 5 T.J ~ 8.PXPXPX",
"PXPXPXO.q j H ( | R 7 s.` .       O L.~.~.,X1X3XMXA.  . @ X @ X X @ @ @ @   5 SXVXlXlXlXlXVXZ.  . .   c OXC._ Y 3 T.M.0  .PXPXPX",
"PXPXPX9 q k H Y ` ) s.b.*           -.:Xm.:X3X4XBXZ.  . @ X         . # #   3 8XZXlXlXlXxXBX*   X .   . h.OX[.y.h Y Y Y u.PXPXPX",
"PXPX#.6 k H H ^ ) : | _           p ~.U.,X,X3XjXNXL   O X   y 4.q.O.$   @ X   S.DXmXlXlXBXSXR.X . X .   5 OXV.} XX} Q u.e.6.PXPX",
"PXPXm ; 6 H ) i.H 9 H.8         X ).` m 3XeXkXaX5.  X X   @.0XDXDXZX%X:   #   * Q.VXlXBXQ.5 8X3.  X .     C.[.E.].V.} w }  .PXPX",
"PXPXh k ; ; 0 / 8 t.n.X         :.1X    3.mXmXc.    @   f AXVXxXlXBXZX*X. X %   - <XVXNXp   I gXX   .     L xX^.E !  .V.B. .PXPX",
"PXw.q k J ) ~ 8 9 ^._           7XI     c BXBX5.  X X   R.VXbXlXbXlXmXAXL   @ .   I.DXbX3     <X5.  X     * 7Xg.! oXXX^.i.[ T PX",
"PX#.k ; ; q ( { H.^.8         K  X      Y BXVX7.  X .   '.BXzXlXbXlXmXAX5.  @   . R.DXNXp     ! 6X    .     H.W./ /.M.T q G ! PX",
"PXE J ^ ^ J k 0 G.K.*         S.h.      Y VXVX8.  . .   R.BXzXlXzXzXmXAX!   O     &XFXNXt   . - 7Xp         _ ].j p Y ) ~ [ J PX",
"PXH ~ ..p.i.N.i.^.t..         '.d       Y BXBX6.    X   Q VXzXlXlXaXCX8XO   O     I.FXNX5   X   I.7.        8 (.T.j.k.( 8 0 H PX",
"PXK ^ p.i.N.B.!.(.)         * '.*       ! BXxX6Xs       X A.VXbXhXBXvXL   X     X.gXDXCXt   .   5.S.        : K.g.N.i.h ] 6 j PX",
"-XG k # q ^ r.G.(.T         d W..       I BXxXlXgX4.      X 3.NXMX6X3         Z.vXnXZXvX3       L E.        @ K.| | r.x t.q k 3.",
"-XV 6 w V h ; Y /./         E J..       . E iXxXaXNXS.$     3 bXZX%X      y qXDXxXVX7Xf .   .   8 E.        X G.e.{ i.9 r.9 j :.",
"-XH 6 ~ p.i.n.B.^.v         T H.      . .   3 W.mXaXmX9Xf   t vXCXI.  X 9.vXBXbXAXS.@     .     4 E..       . H.k.> 9 ( r.J H 3.",
"-XH 0 J t.r.i.G.^.v         U J..   .     .   . 7.lXsXnXbX4.3 iXmXS.O %XMXsXmX8X!     . . .     9 E.        X k._.l.n.i.r.^ H -.",
"-XH 0 j p.e.t.M.!.Y         c Y..     . . X .     L 7XxXaXnX&XrXaX<X<XmXpXzXW.&   . . . .   .   L ).        @ F._.B.n.i.i.q H ` ",
"PXT J ; , 6 3 U _.|         : '.@     . . . . X .   @ I.zXpXnXyXwXpXzXsXiX8.    . X . . . . .   5.J.        > Y.K.e.' ` J 7 Y PX",
"PX! p.t.t.u.j.V.].k..         '.d     . . . . . . X     5.iXpXyXuXyXnX<Xf     X X . X . .       L.h.        9 _.k.n v j 7 8 ( PX",
"PX:.[ 0 h h G Y (.{.*         J.h.    . . . . . . X .     L '.yXyXyXA.-   . X . . . . . .     X 1Xh         / }.!.!.K.!.r./ ( PX",
"PX4.[ T ( ) } j.H.T X         E 1X        . . . .   . X     p yXpXY.    X . . . .   .   . .   I 1X          R _.!.G.n.k.e.' / PX",
"PX9.~ i.N.K./.(.w             . tXL   . .   . .   . .   .   & tXpXA.  . . .   . . .   .       >Xh.            : H.!.F.n.k.r.E PX",
"PXPXU ^ ] | i.K.W               8.<X    . .   . . . . . .   5 tXpXL.      . .   .   .   .   f jX&             X H._.n.n.G.| PXPX",
"PXPXP 0 v ' ' P.k.%             # wX:.    .     .   . . .   4 tXpXL.    .   .   .   . .     7Xg.              6.}.P.F.n.k.' PXPX",
"PXPXO.  ; ` ' ' x X               ( jXe           . .       4 tXdXJ.  . .   . .   . .     x.rXO               / }._.!.i.> h PXPX",
"PXPXPX$ . v l O                     H.>Xo   .               @ tXsXA.    . . . .   .     @.nXc                 X 8 g.}.'   PXPXPX",
"PXPXPXf   .                         $ U.#Xo                 4.yXoX<Xy     .     X     O.mX3.                      X V # % PXPXPX",
"PXPXPXq.X                             # L.&Xy             Z.eX4X3XuX1XP   . .       9.NX8.                              d PXPXPX",
"PXPXPXPXf                               $ d.>X#.        +.,X`.:X,X_.4X`.$       = &XaX! .                             & PXPXPXPX",
"PXPXPXPX0.#         O o.s                 . z +X+XX.X   ,.P.L.P.P.U.~.,Xv   = x.fXE.4                 X t .         . d PXPXPXPX",
"PXPXPXPXPXX.    X p M m <.r . : $             X R v.+X<.d.c.c.c.v.m.m.P.z.x.2XU.v               .     4.yXv.3 .     3 PXPXPXPXPX",
"PXPXPXPXPXPXt   p l > > a 1.o.%.0.e                 7 >.d.6.d.d.z.f.f.c.v.,.>               . #.+Xd X.1X!._.`.,.. X PXPXPXPXPXPX",
"PXPXPXPXPXPX5.%   , < u > a b > s 0.g o                 , ;.;.>.,.,.d.&.                  $ <.#XP.U.U.P.P.G._.b.X 3 PXPXPXPXPXPX",
"PXPXPXPXPXPXPX@.X - 7 < i > M ;.a u 2.O.=                 b %.%.%.;.;.:               . y q.L.b.m.#Xn.l.l.L.6.. @ PXPXPXPXPXPXPX",
"PXPXPXPXPXPXPXPXo.p u 1 < 8 c.5Xc.1 1 +.2.g $             b a i R u %.%             < #.+Xz.,.d.:X2Xa.-.f.b.R % PXPXPXPXPXPXPXPX",
"PXPXPXPXPXPXPXPXPX-.2 i i * + z x u l u b 2.<.g = X       b : X n   +.+       $ y O.x.z.&.&.>.x 2 i @ u d.-.,.PXPXPXPXPXPXPXPXPX",
"PXPXPXPXPXPXPXPXPXPX-.z z .       a S > i z S <.<.#.g y & n 1 % n $ M < = s X.1.0.2.B A t n -.&       p -.R PXPXPXPXPXPXPXPXPXPX",
"PXPXPXPXPXPXPXPXPXPXPX6.C l + X 1 $.z X N 1 u z n %.<.<.1.A o.X.A O.m +.<.<.<.%.l u o.9.m + S n % . , M R PXPXPXPXPXPXPXPXPXPXPX",
"PXPXPXPXPXPXPXPXPXPXPXPXf.=.N N =.F + B B . D S n i z z z i l A l o.u i s l > 1 > s O.A o.& > n n i n R PXPXPXPXPXPXPXPXPXPXPXPX",
"PXPXPXPXPXPXPXPXPXPXPXPXPXv.d.=.=.b > a.+ l *.D S D b < Z A Z b a > A A s > > + i : u u u b + a a m P PXPXPXPXPXPXPXPXPXPXPXPXPX",
"PXPXPXPXPXPXPXPXPXPXPXPXPXPXPXf.*.;.>.z . =.*.F D *.1 1 ;.;.;.+.a < 1.%.Z = 1 + a < < a u u X.Z d PXPXPXPXPXPXPXPXPXPXPXPXPXPXPX",
"PXPXPXPXPXPXPXPXPXPXPXPXPXPXPXPXPXf.a.;.o.$.C =.&.=.> i F D D N z + S z z + l < < a O u s i P PXPXPXPXPXPXPXPXPXPXPXPXPXPXPXPXPX",
"PXPXPXPXPXPXPXPXPXPXPXPXPXPXPXPXPXPXc.z.z.0.;.o.F =.. z =.F F F S . C C D + > b : n +.S n +.PXPXPXPXPXPXPXPXPXPXPXPXPXPXPXPXPXPX",
"PXPXPXPXPXPXPXPXPXPXPXPXPXPXPXPXPXPXPXPXPXz.z.z.>.=.S A o.S B D F + n S A Z S $.<.%.%.PXPXPXPXPXPXPXPXPXPXPXPXPXPXPXPXPXPXPXPXPX",
"PXPXPXPXPXPXPXPXPXPXPXPXPXPXPXPXPXPXPXPXPXPXPXPXf.,.z.z.z.0.2.>.&.2.0.0.0.z.>.%.PXPXPXPXPXPXPXPXPXPXPXPXPXPXPXPXPXPXPXPXPXPXPXPX",
"PXPXPXPXPXPXPXPXPXPXPXPXPXPXPXPXPXPXPXPXPXPXPXPXPXPXPXPXPXg.c.h.f.6.g.PXPXPXPXPXPXPXPXPXPXPXPXPXPXPXPXPXPXPXPXPXPXPXPXPXPXPXPXPX",
"PXPXPXPXPXPXPXPXPXPXPXPXPXPXPXPXPXPXPXPXPXPXPXPXPXPXPXPXPXPXPXPXPXPXPXPXPXPXPXPXPXPXPXPXPXPXPXPXPXPXPXPXPXPXPXPXPXPXPXPXPXPXPXPX"
};
