/* XPM */
static char *ilcoin__[] = {
/* columns rows colors chars-per-pixel */
"32 32 219 2 ",
"   c #010100",
".  c #080602",
"X  c #0C0B05",
"o  c #0D0E08",
"O  c #060804",
"+  c #120D05",
"@  c #100F08",
"#  c #141206",
"$  c #191406",
"%  c #15140B",
"&  c #1B1509",
"*  c #1B190B",
"=  c #1C1D11",
"-  c #231E0B",
";  c #2B1E0F",
":  c #24170C",
">  c #301E0F",
",  c #301F10",
"<  c #26220C",
"1  c #2B230D",
"2  c #2B290D",
"3  c #342A04",
"4  c #34230E",
"5  c #31290E",
"6  c #3C2F0A",
"7  c #3E340E",
"8  c #262313",
"9  c #2B2512",
"0  c #2A2A11",
"q  c #342512",
"w  c #332B14",
"e  c #3B2B15",
"r  c #3B2F19",
"t  c #353311",
"y  c #3A3313",
"u  c #37341A",
"i  c #3B3817",
"p  c #443609",
"a  c #4B3C0C",
"s  c #45390B",
"d  c #422E18",
"f  c #433316",
"g  c #443B14",
"h  c #43331A",
"j  c #4A3B1D",
"k  c #48371A",
"l  c #533B1D",
"z  c #5C3C1E",
"x  c #433B21",
"c  c #4D3F23",
"v  c #623F20",
"b  c #54430D",
"n  c #5D4B0C",
"m  c #5A460E",
"M  c #44421D",
"N  c #4C431C",
"B  c #4E4A1A",
"V  c #484015",
"C  c #534414",
"Z  c #584616",
"A  c #5C4D14",
"S  c #53451D",
"D  c #594619",
"F  c #5C4E19",
"G  c #534A1A",
"H  c #5C531C",
"J  c #5A581F",
"K  c #64510D",
"L  c #624E15",
"P  c #655412",
"I  c #685414",
"U  c #6C5B15",
"Y  c #63531A",
"T  c #6C561C",
"R  c #615A1C",
"E  c #715A14",
"W  c #745E1A",
"Q  c #785F18",
"!  c #76600E",
"~  c #73641B",
"^  c #7A641B",
"/  c #7C6A1B",
"(  c #776514",
")  c #4E4520",
"_  c #544325",
"`  c #5C4523",
"'  c #574B23",
"]  c #5D4E26",
"[  c #5A5424",
"{  c #5D5625",
"}  c #434034",
"|  c #534E34",
" . c #644524",
".. c #654C24",
"X. c #684826",
"o. c #645325",
"O. c #635C22",
"+. c #6C5D22",
"@. c #625229",
"#. c #665C29",
"$. c #6C5725",
"%. c #755A2C",
"&. c #765627",
"*. c #605B3A",
"=. c #676226",
"-. c #6D6324",
";. c #6E6928",
":. c #746425",
">. c #7C6B23",
",. c #72622B",
"<. c #7E632C",
"1. c #746B2A",
"2. c #766C25",
"3. c #75712B",
"4. c #7B732C",
"5. c #6D6833",
"6. c #7C6732",
"7. c #77713E",
"8. c #726F43",
"9. c #836D1D",
"0. c #846917",
"q. c #8B701C",
"w. c #91751D",
"e. c #846929",
"r. c #867322",
"t. c #8D7523",
"y. c #8B7924",
"u. c #82732B",
"i. c #8B762C",
"p. c #847B2D",
"a. c #8A792C",
"s. c #967923",
"d. c #836E31",
"f. c #866730",
"g. c #956F30",
"h. c #837B30",
"j. c #957431",
"k. c #A17E35",
"l. c #9C821E",
"z. c #B3911E",
"x. c #8C832E",
"c. c #85812F",
"v. c #9C8123",
"b. c #99862D",
"n. c #99872D",
"m. c #86833B",
"M. c #8C8A32",
"N. c #948D34",
"B. c #9D8E33",
"V. c #998233",
"C. c #9C9135",
"Z. c #9C9838",
"A. c #AC8C23",
"S. c #A58727",
"D. c #B48C2B",
"F. c #AA942B",
"G. c #B29A25",
"H. c #A98B30",
"J. c #A48937",
"K. c #A49534",
"L. c #A59836",
"P. c #B29539",
"I. c #B48C36",
"U. c #B7A22D",
"Y. c #AFA538",
"T. c #B4A33B",
"R. c #BCA23C",
"E. c #C19A2F",
"W. c #C1963D",
"Q. c #C49D3D",
"!. c #C0A930",
"~. c #D0A635",
"^. c #CCB53E",
"/. c #C7B73C",
"(. c #D2B635",
"). c #DEBE34",
"_. c #E4B73F",
"`. c #E5C93A",
"'. c #888544",
"]. c #B48E40",
"[. c #B7A642",
"{. c #B9B149",
"}. c #DCAD44",
"|. c #D6A847",
" X c #CCBF45",
".X c #C4B648",
"XX c #D4B442",
"oX c #D8B844",
"OX c #C6C348",
"+X c #D2C643",
"@X c #D9C142",
"#X c #D7CC47",
"$X c #D4C549",
"%X c #D1CB4C",
"&X c #CFD14D",
"*X c #D7D24D",
"=X c #CAC850",
"-X c #DAD554",
";X c #E5C546",
":X c #ECCB47",
">X c #F2CE4A",
",X c #E0DC4E",
"<X c #EADF4F",
"1X c #F4D74A",
"2X c #FDD953",
"3X c #EBE64F",
"4X c #FFE54A",
"5X c #E6E558",
"6X c #FBE755",
"7X c #F5F357",
"8X c #FEF353",
"9X c #FEF956",
"0X c #F5F359",
"qX c #FCF758",
"wX c #FFFF61",
"eX c #F6F468",
"rX c #FFFF6F",
"tX c #FFFF7A",
"yX c None",
/* pixels */
"yXyXyXyXyXyXyXyXyXyXyXyXyXyX} 8.8.| yXyXyXyXyXyXyXyXyXyXyXyXyXyX",
"yXyXyXyXyXyXyXyXyXyXyXeX-Xm.5.- * [ '.{.eXyXyXyXyXyXyXyXyXyXyXyX",
"yXyXyXyXyXyXyXyXyXOXM.Y.qXrX=X# # m.tXwX%XY.;XoXyXyXyXyXyXyXyXyX",
"yXyXyXyXyXyXyX(.b.x.$Xh.%X%X1.X o B .X,XL.Z.L.P.H.yXyXyXyXyXyXyX",
"yXyXyXyXyXyX/ ~ +.:.>X2XJ..   + #     4.{.C.L.p.>.a.yXyXyXyXyXyX",
"yXyXyXyXyXU / >.:.L.R.J.i             - p.N.K.a.C.F.v.yXyXyXyXyX",
"yXyXyXyXU A s.H.V.;XH       % 8 8 * .     i .XT.T.:X)./ yXyXyXyX",
"yXyXyXp K q.Y e.H.>.{ % 0 #.1.,.,.,.,.y X M 4.N.1X4XU.U / yXyXyX",
"yXyXyX3 Z Q T &.T o.P.[.4.[ y - - w S ;.T. X3.3.U./.F.G.( ~ yXyX",
"yXyXB b g D D & 1 j.|.6XP.            ;.wX9X#XJ * y.`./ A P yXyX",
"yXyXs A L Y 6     k.}.2XoX%   O *   . M.qX9X9Xt   < U.q.~ U yXyX",
"yXk 3 b I Y O   g $.W.2XJ . u OX&X=.  t *X3XN.J @   >.(.9./ 9.yX",
"yXg 3 a ^ L   < >.+ B.@X$   /.qXqX5X<   c.,X% O.N   V n.F.l.! yX",
"yXn K E l.7   B R   L./.#   +X8X4X0X0   3.0XO i =.  X y.y.P b yX",
"*.n ! z.A.X   F g   L.8XM   B 3X6Xc.  @ {.5Xo < -.%   ^ l.P p G ",
"7.6 a ( w.. . H y   2 +X7X1.O N.*XO u -X7X-.  $ Y <   I ^ P n F ",
"7.p ( A.s.  . H y     X C.0XN.K.OX-.7X#Xt     & Y <   W s.w.I A ",
"5.m a ~ v.$   F g   X     O.<X1X1X6XK.X   .   5 :.*   t.S.T s A ",
"yXU K / S.5   B Y     X .   y oX>XO.    X .   N T     S.S.0.L yX",
"yXI 0.A.Y     1 4.<   . . .   i.^.    . .   . 1.N     Z E.D.q.yX",
"yXk b s.C       -.:.      .   i.^.  . .     N a.#     g ~.S.I yX",
"yXyX# 4 +       & i.'         b.oX.       w B.y       - e.Z yXyX",
"yXyX*             < d.' o   N }.>Xf.    N Z.B             X yXyX",
"yXyXx O . 9 9 o     & $.@.h J.P.W.(._ #.V.g       < i X   $ yXyX",
"yXyXyX0 + h j r u %     w c %.f.f.g.$.c $     ) ] V._.Y + yXyXyX",
"yXyXyXyX9 & , f.%.x 8       ; ` ..j       = ] ].}.I.D.D yXyXyXyX",
"yXyXyXyXyXf : 9 d d _ x 8 O * q q 9 O 8 x @.<...q k ..yXyXyXyXyX",
"yXyXyXyXyXyXz & > d q l _ _ x e h h c c _ ] h ; o q yXyXyXyXyXyX",
"yXyXyXyXyXyXyXe. .d > z v d c c r c r ; 8 q q e h yXyXyXyXyXyXyX",
"yXyXyXyXyXyXyXyXg.%.X.X.v q v v q k > : q r h N yXyXyXyXyXyXyXyX",
"yXyXyXyXyXyXyXyXyXyXyX6.&.` @.X.k ` ` l ` yXyXyXyXyXyXyXyXyXyXyX",
"yXyXyXyXyXyXyXyXyXyXyXyXyXyXd.<.f.6.yXyXyXyXyXyXyXyXyXyXyXyXyXyX"
};
